<?xml version="1.0" standalone="no"?>
<!DOCTYPE svg PUBLIC "-//W3C//DTD SVG 1.1//EN" "http://www.w3.org/Graphics/SVG/1.1/DTD/svg11.dtd" >
<svg xmlns="http://www.w3.org/2000/svg" xmlns:xlink="http://www.w3.org/1999/xlink" version="1.1">
<metadata>
Created by FontForge 20160405 at Mon Sep 25 13:54:21 2017
 By www-data
Copyright (c) 2011, Eduardo Tunni (http://www.tipo.net.ar), with Reserved Font Name "Changa"
</metadata>
<defs>
<font id="ChangaOne" horiz-adv-x="600" >
  <font-face 
    font-family="Changa One"
    font-weight="400"
    font-stretch="normal"
    units-per-em="1000"
    panose-1="2 0 0 0 0 0 0 0 0 0"
    ascent="800"
    descent="-200"
    x-height="500"
    cap-height="625"
    bbox="-50 -180 1125 882"
    underline-thickness="50"
    underline-position="-150"
    unicode-range="U+0020-FB02"
  />
<missing-glyph horiz-adv-x="150" 
 />
    <glyph glyph-name="fi" unicode="fi" horiz-adv-x="620" 
d="M370 0v370h-100v-370h-200v370h-50v130h50l7 60q14 115 176 115q76 0 161 -25l-31 -117l-113 9v-42h134l166 25v-525h-200z" />
    <glyph glyph-name="fl" unicode="fl" horiz-adv-x="642" 
d="M270 542v-42h60v-130h-60v-370h-200v370h-50v130h50l7 60q14 115 176 115q76 0 161 -25l169 15v-522q31 -6 49 -7l-9 -147q-128 0 -169 15q-51 19 -63 48q-8 18 -8 42v439z" />
    <glyph glyph-name=".notdef" horiz-adv-x="150" 
 />
    <glyph glyph-name=".null" horiz-adv-x="0" 
 />
    <glyph glyph-name="nonmarkingreturn" horiz-adv-x="333" 
 />
    <glyph glyph-name="space" unicode=" " horiz-adv-x="150" 
 />
    <glyph glyph-name="exclam" unicode="!" horiz-adv-x="330" 
d="M250 170h-170l-30 428q0 27 37 27h156q37 0 37 -27zM53 70q0 43 23 61t89 18t88.5 -18t22.5 -61t-22.5 -60t-89 -17t-89 17t-22.5 60z" />
    <glyph glyph-name="quotedbl" unicode="&#x22;" horiz-adv-x="500" 
d="M175 300h-100q-50 261 -50 265v58q0 27 37 27h126q37 0 37 -27v-58q0 -4 -50 -265zM425 300h-100q-50 261 -50 265v58q0 27 37 27h126q37 0 37 -27v-58q0 -4 -50 -265z" />
    <glyph glyph-name="numbersign" unicode="#" horiz-adv-x="746" 
d="M425 665l-76 -191h180l66 166q5 10 9 14q11 11 34 11h51l-76 -191h133l-18 -48q-10 -24 -22 -28q-6 -1 -17 -3h-107l-66 -167h133l-18 -47q-8 -18 -16 -23.5t-23 -7.5h-107l-65 -165q-5 -10 -9 -14q-11 -11 -34 -11h-51l75 190h-180l-65 -165q-5 -10 -9 -14
q-11 -11 -34 -11h-51l75 190h-137l19 47q7 18 15.5 23.5t23.5 7.5h110l66 167h-137l19 48q10 24 22 27q6 2 17 4h110l66 166q5 10 9 14q11 11 34 11h51zM318 395l-66 -167h180l66 167h-180z" />
    <glyph glyph-name="dollar" unicode="$" horiz-adv-x="551" 
d="M225 718h127l-3 -80q80 -5 140 -16l-29 -155h-150q-35 0 -46.5 -11t-12.5 -42l63 -7q115 -13 158.5 -59t43.5 -119t-15 -116.5t-43 -66.5q-51 -39 -134 -45l-3 -101h-129l4 101q-95 7 -161 24l29 159q83 -22 174 -22q38 0 71 4v42l-62 7q-120 12 -160 70q-35 51 -35 133
q0 108 44.5 157t125.5 60z" />
    <glyph glyph-name="percent" unicode="%" horiz-adv-x="862" 
d="M659 625l-345 -600q-10 -17 -17.5 -21t-31.5 -4h-65l345 600q10 17 17.5 21t31.5 4h65zM472 170q0 94 43.5 139.5t141.5 45.5t141.5 -45.5t43.5 -139.5t-43.5 -139.5t-141.5 -45.5t-141.5 45.5t-43.5 139.5zM630 209v-107h22q21 0 26.5 4.5t5.5 24.5v107h-22
q-21 0 -26.5 -4.5t-5.5 -24.5zM20 455q0 94 43.5 139.5t141.5 45.5t141.5 -45.5t43.5 -139.5t-43.5 -139.5t-141.5 -45.5t-141.5 45.5t-43.5 139.5zM178 494v-107h22q21 0 26.5 4.5t5.5 24.5v107h-22q-21 0 -26.5 -4.5t-5.5 -24.5z" />
    <glyph glyph-name="ampersand" unicode="&#x26;" horiz-adv-x="664" 
d="M439 -115l-25 136q-121 -36 -194 -36q-175 0 -175 195q0 165 124 183v4l-85 29q0 133 47.5 181t141 48t193.5 -21l-29 -147h-89q-33 0 -47 -8.5t-14 -33.5v-33h367l-22 -140h-70v-342zM335 156q29 0 54 4l-15 82h-87v-41q0 -45 48 -45z" />
    <glyph glyph-name="quotesingle" unicode="'" horiz-adv-x="250" 
d="M175 300h-100q-50 261 -50 265v58q0 27 37 27h126q37 0 37 -27v-58q0 -4 -50 -265z" />
    <glyph glyph-name="parenleft" unicode="(" horiz-adv-x="314" 
d="M274 620l10 -147q-17 -7 -28.5 -16.5t-25.5 -32.5q-30 -47 -30 -182q0 -138 30 -184q15 -23 25.5 -31t28.5 -16l-10 -147q-254 33 -254 378t254 378z" />
    <glyph glyph-name="parenright" unicode=")" horiz-adv-x="314" 
d="M30 463l10 147q254 -33 254 -378t-254 -378l-10 147q18 8 28.5 16t25.5 31q30 46 30 184q0 135 -30 182q-14 23 -25.5 32.5t-28.5 16.5z" />
    <glyph glyph-name="asterisk" unicode="*" horiz-adv-x="536" 
d="M341 580l-29 -89l75 57l54 16q8 2 11 2q18 0 27 -28l23 -71q4 -12 4 -21q0 -19 -17 -24l-56 -16h-95l78 -55l33 -47q6 -10 6 -19t-20 -25l-60 -44q-15 -12 -27 -12t-20 11l-42 48l-22 82l-26 -83l-34 -46q-8 -11 -19.5 -11t-26.5 11l-61 44q-21 15 -21 25.5t6 18.5l35 47
l73 53h-91l-55 18q-18 5 -18 24q0 9 4 20l23 72q10 29 27 29q4 0 10 -2l56 -18l74 -55l-29 88v58q0 27 37 27h76q37 0 37 -27v-58z" />
    <glyph glyph-name="plus" unicode="+" 
d="M72 240v144h155v155h144v-155h156v-144h-156v-156h-144v156h-155z" />
    <glyph glyph-name="comma" unicode="," horiz-adv-x="277" 
d="M247 99v-12q-3 -44 -25 -87q-7 -13 -8 -15l-68 -136l-89 29l33 144q-35 6 -47.5 23.5t-12.5 65t22 71.5t86.5 24t86.5 -24t22 -83z" />
    <glyph glyph-name="hyphen" unicode="-" horiz-adv-x="350" 
d="M25 200v108q0 27 16.5 34.5t52.5 7.5h231v-108q0 -27 -16.5 -34.5t-52.5 -7.5h-231z" />
    <glyph glyph-name="period" unicode="." horiz-adv-x="267" 
d="M30 99q0 59 22 83t86.5 24t86.5 -24t22 -83t-22 -82t-86.5 -23t-86.5 23t-22 82z" />
    <glyph glyph-name="slash" unicode="/" horiz-adv-x="503" 
d="M503 665l-389 -680q-5 -10 -9 -14q-11 -11 -34 -11h-71l389 680q5 10 9 14q11 11 34 11h71z" />
    <glyph glyph-name="zero" unicode="0" 
d="M44 169q-11 57 -11 143.5t11 143.5t39.5 100.5t82 63.5t135.5 20t135 -20t82 -63.5t39.5 -100.5t10.5 -144t-10.5 -143.5t-39.5 -100t-82 -63.5t-135 -20t-135.5 20t-82 63.5t-39.5 100.5zM239 426v-280h42q45 0 63 9.5t18 43.5v280h-47q-44 0 -60 -9t-16 -44z" />
    <glyph glyph-name="one" unicode="1" 
d="M566 0h-500v160h178v265l-178 -12v160l230 52h158v-465h112v-160z" />
    <glyph glyph-name="two" unicode="2" 
d="M75 453l-26 149q126 38 251 38q50 0 83.5 -3t69.5 -15t57 -33q48 -48 48 -147t-56 -146t-236 -108v-28h282v-160h-513v125q0 56 21 107q13 29 63 70q27 23 72.5 44t86 39.5t65.5 30.5v54q-45 5 -83 5q-92 0 -185 -22z" />
    <glyph glyph-name="three" unicode="3" 
d="M349 405v65q-30 5 -97 5t-167 -21l-26 148q122 38 236 38q98 0 142 -12t65 -29q46 -39 46 -118q0 -100 -83 -144v-5q99 -41 99 -149q0 -53 -16.5 -90.5t-41.5 -58t-66 -32.5q-61 -17 -171.5 -17t-221.5 26l28 165q95 -23 161 -23t113 6v64l-172 17v145z" />
    <glyph glyph-name="four" unicode="4" 
d="M324 0v100h-308v125l154 400h354v-353h65v-172h-65v-100h-200zM314 475l-89 -203h99v203h-10z" />
    <glyph glyph-name="five" unicode="5" 
d="M42 11l28 165q95 -23 166.5 -23t117.5 6v50l-75 8q-124 13 -168.5 42.5t-44.5 105.5q0 11 10 260h455l-15 -172l-237 14v-51l59 -7q131 -16 181 -64.5t50 -135.5q0 -63 -17 -106.5t-40.5 -66t-66.5 -34.5t-75.5 -14.5t-86.5 -2.5q-130 0 -241 26z" />
    <glyph glyph-name="six" unicode="6" 
d="M350 178v79h-41q-33 0 -46 -7.5t-13 -34.5v-79h41q33 0 46 7.5t13 34.5zM565 200q0 -66 -20 -110.5t-59 -66.5t-82.5 -30t-103.5 -8q-151 0 -208 78t-57 249q0 87 13 144t47 100q65 84 254 84q38 0 100.5 -8.5t92.5 -17.5l-30 -153q-81 14 -154.5 14t-107.5 -9v-51h50
q60 0 103.5 -8t82.5 -30t59 -66.5t20 -110.5z" />
    <glyph glyph-name="seven" unicode="7" 
d="M554 500l-193 -500h-226l179 451l-240 -3l-15 177h495v-125z" />
    <glyph glyph-name="eight" unicode="8" 
d="M300 640q68 0 120 -15.5t88 -57.5t36 -108q0 -95 -67 -144v-7q38 -18 63 -56t25 -81q0 -186 -265 -186t-265 186q0 43 25 81t63 56v7q-67 47 -67 144q0 66 36 108t88 57.5t120 15.5zM350 201l-69 33q-14 6 -20 6q-11 0 -11 -17v-87h41q33 0 46 7.5t13 34.5v23zM250 423
l65 -34q8 -4 15 -4q20 0 20 18v81h-41q-33 0 -46 -7.5t-13 -34.5v-19z" />
    <glyph glyph-name="nine" unicode="9" 
d="M249 447v-71h41q33 0 46 7.5t13 34.5v71h-41q-33 0 -46 -7.5t-13 -34.5zM349 217l-50 1q-160 3 -214 56q-51 49 -51 151q0 132 79 177q39 22 82.5 30t103.5 8q151 0 208 -78t57 -249.5t-57 -249.5t-200 -78t-254 26l28 165q95 -23 158 -23t110 6v58z" />
    <glyph glyph-name="colon" unicode=":" horiz-adv-x="277" 
d="M30 99q0 59 22 83t86.5 24t86.5 -24t22 -83t-22 -82t-86.5 -23t-86.5 23t-22 82zM30 399q0 59 22 83t86.5 24t86.5 -24t22 -83t-22 -82t-86.5 -23t-86.5 23t-22 82z" />
    <glyph glyph-name="semicolon" unicode=";" horiz-adv-x="277" 
d="M247 99v-12q-3 -44 -25 -87q-7 -13 -8 -15l-68 -136l-89 29l33 144q-35 6 -47.5 23.5t-12.5 65t22 71.5t86.5 24t86.5 -24t22 -83zM30 399q0 59 22 83t86.5 24t86.5 -24t22 -83t-22 -82t-86.5 -23t-86.5 23t-22 82z" />
    <glyph glyph-name="less" unicode="&#x3c;" 
d="M432 587l67 -134l-247 -138v-7l247 -137l-67 -134l-325 184v182z" />
    <glyph glyph-name="equal" unicode="=" 
d="M72 121v144h455v-144h-455zM72 359v144h455v-144h-455z" />
    <glyph glyph-name="greater" unicode="&#x3e;" 
d="M174 37l-67 134l247 137v7l-247 138l67 134l325 -184v-182z" />
    <glyph glyph-name="question" unicode="?" horiz-adv-x="528" 
d="M318 302l-17 -127h-170l-15 188q0 18 12 28.5t53 24.5l107 37v34q-26 2 -59.5 2t-88.5 -6.5t-76 -13.5l-24 143q109 28 208 28q146 0 194 -40q46 -37 46 -115t-38.5 -114.5t-131.5 -68.5zM105 70q0 43 23 61t89 18t88.5 -18t22.5 -61t-22.5 -60t-89 -17t-89 17t-22.5 60z
" />
    <glyph glyph-name="at" unicode="@" horiz-adv-x="867" 
d="M537 187v-56h11q34 0 50.5 6.5t18.5 29.5v62h-11q-36 0 -52.5 -7.5t-16.5 -34.5zM40 176v83q0 222 170 298q97 43 266 43t255 -47t86 -146v-407h-100l-57 63q-60 -72 -176 -72q-153 0 -153 168q0 191 246 191h40v73q-52 10 -118.5 10t-92 -1.5t-57.5 -9.5t-50 -22.5
t-31 -42.5t-13 -67v-197q0 -39 13 -67t31 -42.5t50 -22.5q44 -11 123 -11h188v-94q-105 -21 -190.5 -21t-145.5 9.5t-114 33.5t-90 62q-80 83 -80 236z" />
    <glyph glyph-name="A" unicode="A" horiz-adv-x="609" 
d="M199 0h-211l162 625h309l162 -625h-211l-23 99h-165zM299 433l-41 -175h92l-40 175h-11z" />
    <glyph glyph-name="B" unicode="B" horiz-adv-x="592" 
d="M50 0v625h324q90 0 128.5 -35t38.5 -102t-24.5 -103.5t-65.5 -47.5v-6q121 -21 121 -165q0 -75 -40 -120.5t-123 -45.5h-359zM328 249h-78v-102h77q42 0 42 51t-41 51zM313 488h-63v-93h62q38 0 38 46.5t-37 46.5z" />
    <glyph glyph-name="C" unicode="C" horiz-adv-x="500" 
d="M465 179l15 -168q-63 -26 -158 -26t-152.5 20t-90.5 63t-46 101t-13 143t13 143.5t46 101.5q64 83 235 83q38 0 89.5 -7.5t76.5 -18.5l-30 -153q-65 14 -119 14t-75 -10t-21 -40v-262q39 -8 79 -8q85 0 151 24z" />
    <glyph glyph-name="D" unicode="D" horiz-adv-x="645" 
d="M50 0v625h280q169 0 232 -72t63 -240.5t-63 -240.5t-232 -72h-280zM333 465h-83v-305h83q41 0 59.5 9.5t18.5 43.5v199q0 34 -18.5 43.5t-59.5 9.5z" />
    <glyph glyph-name="E" unicode="E" horiz-adv-x="530" 
d="M450 236h-200v-76h245v-160h-445v625h440l-25 -160h-215v-84h200v-145z" />
    <glyph glyph-name="F" unicode="F" horiz-adv-x="470" 
d="M420 232h-170v-232h-200v625h410l-25 -160h-185v-84h170v-149z" />
    <glyph glyph-name="G" unicode="G" 
d="M370 184v27h-51v153h241v-334q-119 -45 -246 -45q-171 0 -235 83q-33 43 -46 101t-13 143.5t13.5 143t48.5 100.5q66 84 255 84q39 0 101.5 -8t91.5 -18l-30 -153q-81 14 -146.5 14t-92 -10t-26.5 -40v-283h66q36 0 52.5 7.5t16.5 34.5z" />
    <glyph glyph-name="H" unicode="H" horiz-adv-x="650" 
d="M400 0v221h-150v-221h-200v625h200v-221h150v221h200v-625h-200z" />
    <glyph glyph-name="I" unicode="I" horiz-adv-x="300" 
d="M50 0v625h200v-625h-200z" />
    <glyph glyph-name="J" unicode="J" horiz-adv-x="366" 
d="M20 0l-20 160h83q31 0 39.5 8.5t8.5 21.5v275h-83v160h283v-460q0 -81 -40 -123t-115 -42h-156z" />
    <glyph glyph-name="K" unicode="K" horiz-adv-x="593" 
d="M250 272v-272h-200v625h200v-255h4q2 30 10 48l98 207h216l-150 -307l155 -318h-216l-103 224q-8 18 -10 48h-4z" />
    <glyph glyph-name="L" unicode="L" horiz-adv-x="455" 
d="M450 0h-400v625h200v-465h200v-160z" />
    <glyph glyph-name="M" unicode="M" horiz-adv-x="811" 
d="M234 0h-209l38 625h261l78 -318h7l78 318h261l38 -625h-209l-12 303h-7l-76 -303h-153l-77 303h-6z" />
    <glyph glyph-name="N" unicode="N" horiz-adv-x="655" 
d="M417 0l-153 222q-8 11 -10 48h-4v-270h-200v625h188l153 -222q8 -11 10 -48h4v270h200v-625h-188z" />
    <glyph glyph-name="O" unicode="O" horiz-adv-x="630" 
d="M20 312q0 171 64 249.5t231 78.5t231 -78.5t64 -249.5q0 -85 -13.5 -143t-46.5 -101t-91 -63t-144 -20t-144 20t-91 63t-46.5 101t-13.5 143zM235 416v-260h83q41 0 59.5 9.5t18.5 43.5v260h-84q-40 0 -58.5 -9.5t-18.5 -43.5z" />
    <glyph glyph-name="P" unicode="P" horiz-adv-x="590" 
d="M380 151h-130v-151h-200v625h315q215 0 215 -231q0 -127 -56 -188q-21 -23 -58 -39t-86 -16zM250 465v-154h46q36 0 52.5 7.5t16.5 34.5v70q0 27 -16.5 34.5t-52.5 7.5h-46z" />
    <glyph glyph-name="Q" unicode="Q" horiz-adv-x="630" 
d="M385 23l-85 -23q-168 0 -226 86q-30 43 -42 96.5t-12 129.5q0 171 64 249.5t230 78.5t231 -79t65 -249q0 -127 -53 -205l72 -42l-52 -115l-192 35v38zM235 156h83q41 0 59.5 9.5t18.5 43.5v260h-84q-40 0 -58.5 -9.5t-18.5 -43.5v-260z" />
    <glyph glyph-name="R" unicode="R" horiz-adv-x="615" 
d="M595 0h-220l-82 186h-43v-186h-200v625h315q215 0 215 -219q0 -150 -93 -198zM250 465v-125h46q36 0 52.5 7.5t16.5 34.5v41q0 27 -16.5 34.5t-52.5 7.5h-46z" />
    <glyph glyph-name="S" unicode="S" horiz-adv-x="577" 
d="M25 11l28 165q92 -23 165.5 -23t118.5 6v50l-90 8q-122 11 -167.5 58.5t-45.5 140.5q0 128 55.5 176t188.5 48t240 -25l-25 -160q-93 15 -149 15t-95 -5v-49l72 -7q131 -13 181 -62.5t50 -137.5q0 -63 -17 -106.5t-40.5 -66t-66.5 -34.5t-75.5 -14.5t-86.5 -2.5
q-130 0 -241 26z" />
    <glyph glyph-name="T" unicode="T" horiz-adv-x="500" 
d="M495 465h-145v-465h-200v465h-145v160h490v-160z" />
    <glyph glyph-name="U" unicode="U" horiz-adv-x="607" 
d="M235 625v-469h71q38 0 52 9.5t14 43.5v416h200v-351q0 -85 -11 -137t-41 -88t-82 -50t-135 -14t-134.5 14t-81.5 50t-41 88t-11 137v351h200z" />
    <glyph glyph-name="V" unicode="V" horiz-adv-x="602" 
d="M391 625h211l-155 -625h-292l-155 625h211l85 -397h9z" />
    <glyph glyph-name="W" unicode="W" horiz-adv-x="821" 
d="M612 625h209l-98 -625h-261l-46 230h-12l-45 -230h-261l-98 625h209l47 -349h6l72 349h153l71 -349h6z" />
    <glyph glyph-name="X" unicode="X" horiz-adv-x="592" 
d="M227 625l69 -167h10l69 167h217l-139 -302l139 -323h-222l-75 180h-9l-74 -180h-212l136 317l-136 308h227z" />
    <glyph glyph-name="Y" unicode="Y" horiz-adv-x="560" 
d="M221 625l55 -220h7l56 220h221l-180 -455v-170h-200v170l-180 455h221z" />
    <glyph glyph-name="Z" unicode="Z" horiz-adv-x="589" 
d="M564 0h-539v125l256 334l-3 6h-210l-18 160h510v-125l-253 -334l3 -6h254v-160z" />
    <glyph glyph-name="bracketleft" unicode="[" horiz-adv-x="339" 
d="M50 -41v546q0 50 36 72q39 23 82 27q63 6 132 6l9 -147q-3 0 -83 -7v-448l83 -7l-9 -147q-131 0 -174 15q-53 18 -67 47q-9 19 -9 43z" />
    <glyph glyph-name="backslash" unicode="\" horiz-adv-x="503" 
d="M389 -15l-389 680h71q19 0 27 -5.5t16 -19.5l389 -680h-71q-19 0 -27 5.5t-16 19.5z" />
    <glyph glyph-name="bracketright" unicode="]" horiz-adv-x="339" 
d="M289 505v-546q0 -50 -37 -72q-38 -23 -81 -27q-63 -6 -132 -6l-9 147l83 7v448q-80 7 -83 7l9 147q131 0 175 -15q52 -18 66 -47q9 -19 9 -43z" />
    <glyph glyph-name="asciicircum" unicode="^" 
d="M548 262l-134 -44l-108 224h-6l-108 -224l-134 44l154 325h182z" />
    <glyph glyph-name="underscore" unicode="_" horiz-adv-x="595" 
d="M25 -135v108q0 27 16.5 34.5t52.5 7.5h476v-108q0 -27 -16.5 -34.5t-52.5 -7.5h-476z" />
    <glyph glyph-name="grave" unicode="`" horiz-adv-x="429" 
d="M288 539l-174 35q-16 3 -26 12l-45 39q-4 6 -4 12.5t9 16.5l63 74q9 11 16 11t13 -4l189 -139z" />
    <glyph glyph-name="a" unicode="a" horiz-adv-x="567" 
d="M287 515q240 0 240 -165v-350h-100l-57 57q-29 -34 -79 -53t-94.5 -19t-71.5 7t-53 24q-57 36 -57 134q0 180 272 180h40v36q-32 2 -53 2q-113 0 -194 -27l-24 143q100 31 231 31zM217 172v-41h41q44 0 56.5 10t12.5 26v47h-41q-36 0 -52.5 -7.5t-16.5 -34.5z" />
    <glyph glyph-name="b" unicode="b" horiz-adv-x="595" 
d="M50 25v625l200 15v-166q38 16 99.5 16t105.5 -23t67 -63q43 -75 43 -179q0 -141 -65 -203t-197 -62t-253 40zM250 332v-201h31q36 0 52.5 7.5t16.5 34.5v196h-31q-22 0 -35 -2t-23 -10.5t-11 -24.5z" />
    <glyph glyph-name="c" unicode="c" horiz-adv-x="459" 
d="M417 150l12 -144q-52 -21 -134 -21q-140 0 -202.5 65.5t-62.5 199.5t62.5 199.5t202.5 65.5q87 0 134 -21l-24 -136q-53 11 -84 11q-76 0 -76 -53v-179q29 -6 74.5 -6t97.5 19z" />
    <glyph glyph-name="d" unicode="d" horiz-adv-x="595" 
d="M545 0h-100l-43 42q-44 -57 -157 -57q-61 0 -105 23t-67 63q-43 75 -43 179q0 127 56 192q21 25 58 41.5t86 16.5h115v150l200 15v-665zM245 327v-196h31q34 0 50.5 6.5t18.5 29.5v202h-31q-36 0 -52.5 -7.5t-16.5 -34.5z" />
    <glyph glyph-name="e" unicode="e" horiz-adv-x="565" 
d="M245 170v-35q30 -3 60 -3q93 0 188 30l24 -147q-112 -30 -222 -30q-140 0 -202.5 65.5t-62.5 199.5t62.5 199.5t202 65.5t192.5 -38t53 -142q0 -88 -63.5 -126.5t-231.5 -38.5zM245 327v-41h41q36 0 52.5 7.5t16.5 34.5v41h-41q-36 0 -52.5 -7.5t-16.5 -34.5z" />
    <glyph glyph-name="f" unicode="f" horiz-adv-x="358" 
d="M280 542v-42h60v-130h-60v-370h-200v370h-50v130h50l7 60q14 115 176 115q42 0 110 -10l-11 -131z" />
    <glyph glyph-name="g" unicode="g" horiz-adv-x="536" 
d="M23 -135l26 149q85 -29 199 -29q34 0 48 2v35q-89 0 -116.5 7.5t-36 15t-10 12.5t-1.5 14l30 86q-72 13 -109.5 54t-37.5 128.5t59 131.5t192 44q48 0 85 -6l87 67l105 -101l-57 -67q13 -35 13 -90q0 -79 -39.5 -117.5t-140.5 -46.5l-4 -24q108 -6 152.5 -32.5
t44.5 -97.5q0 -121 -117 -150q-58 -15 -156.5 -15t-215.5 30zM203 340v-65h31q36 0 52.5 7.5t16.5 34.5v65h-31q-36 0 -52.5 -7.5t-16.5 -34.5z" />
    <glyph glyph-name="h" unicode="h" horiz-adv-x="595" 
d="M250 308v-308h-200v650l200 15v-183q64 33 142 33t118 -30.5t40 -84.5v-400h-200v350h-31q-36 0 -52.5 -7.5t-16.5 -34.5z" />
    <glyph glyph-name="i" unicode="i" horiz-adv-x="300" 
d="M50 0v475l200 25v-500h-200zM39 594q0 45 22.5 63t89 18t89 -18t22.5 -63t-22.5 -62t-89 -17t-89 17t-22.5 62z" />
    <glyph glyph-name="j" unicode="j" horiz-adv-x="300" 
d="M-50 -165v130l52 10q31 6 39.5 16.5t8.5 23.5v460l200 25v-500q0 -81 -40 -123t-115 -42h-145zM39 594q0 45 22.5 63t89 18t89 -18t22.5 -63t-22.5 -62t-89 -17t-89 17t-22.5 62z" />
    <glyph glyph-name="k" unicode="k" horiz-adv-x="560" 
d="M334 0l-77 198h-7v-198h-200v650l200 15v-330h7l72 165h216l-116 -238l121 -262h-216z" />
    <glyph glyph-name="l" unicode="l" horiz-adv-x="309" 
d="M250 665v-522q32 -6 49 -7l-9 -147q-128 0 -169 15q-51 19 -63 48q-8 18 -8 42v556z" />
    <glyph glyph-name="m" unicode="m" horiz-adv-x="854" 
d="M330 350h-14q-23 0 -34.5 -2t-21.5 -12.5t-10 -31.5v-304h-200v500h100l45 -46q61 61 160 61t143 -41q61 41 141.5 41t125.5 -30.5t45 -84.5v-400h-200v350h-14q-21 0 -33 -2t-22 -11t-11 -27v-310h-200v350z" />
    <glyph glyph-name="n" unicode="n" horiz-adv-x="595" 
d="M150 500l50 -50q93 65 200 65q70 0 110 -30.5t40 -84.5v-400h-200v350h-31q-34 0 -51.5 -7.5t-17.5 -30.5v-312h-200v500h100z" />
    <glyph glyph-name="o" unicode="o" horiz-adv-x="590" 
d="M30 250q0 134 62.5 199.5t202.5 65.5t202.5 -65.5t62.5 -199.5t-62.5 -199.5t-202.5 -65.5t-202.5 65.5t-62.5 199.5zM245 327v-196h31q36 0 52.5 7.5t16.5 34.5v196h-31q-36 0 -52.5 -7.5t-16.5 -34.5z" />
    <glyph glyph-name="p" unicode="p" horiz-adv-x="595" 
d="M50 500h100l37 -50q44 65 163 65q61 0 105 -23t67 -63q43 -75 43 -179q0 -127 -55 -192q-22 -25 -59 -41.5t-86 -16.5h-115v-150l-200 -15v665zM250 332v-201h31q36 0 52.5 7.5t16.5 34.5v196h-31q-22 0 -35 -2t-23 -10.5t-11 -24.5z" />
    <glyph glyph-name="q" unicode="q" horiz-adv-x="595" 
d="M445 500h100v-651l-200 -14v165q-39 -15 -100 -15t-105 23.5t-67 63.5q-43 76 -43 187.5t56.5 183.5t178.5 72q87 0 152 -43zM245 327v-196h31q36 0 52.5 7.5t16.5 34.5v196h-31q-36 0 -52.5 -7.5t-16.5 -34.5z" />
    <glyph glyph-name="r" unicode="r" horiz-adv-x="375" 
d="M50 500h100l55 -56q59 54 148 71l12 -189q-24 -1 -62.5 -12t-52.5 -28v-286h-200v500z" />
    <glyph glyph-name="s" unicode="s" horiz-adv-x="526" 
d="M274 515q112 0 206 -31l-23 -136q-78 22 -156 22q-24 0 -68 -4v-32q162 0 220 -48q29 -24 41 -52.5t12 -69t-9.5 -72.5t-29 -51t-40.5 -31t-55 -17q-53 -8 -123 -8q-124 0 -224 29l25 142q84 -26 182 -26q45 0 82 4v32q-160 0 -220.5 42t-60.5 139.5t64.5 132.5t176.5 35
z" />
    <glyph glyph-name="t" unicode="t" horiz-adv-x="364" 
d="M20 371v129h50v80l200 50v-130h69v-129h-69v-228q26 -5 59 -7l-9 -147q-137 0 -178 15q-51 18 -64 48q-8 18 -8 42v277h-50z" />
    <glyph glyph-name="u" unicode="u" horiz-adv-x="590" 
d="M240 500v-369h31q36 0 52.5 7.5t16.5 34.5v327h200v-500h-100l-58 57q-60 -72 -171 -72q-89 0 -130 38t-41 127v350h200z" />
    <glyph glyph-name="v" unicode="v" horiz-adv-x="520" 
d="M125 0l-125 500h200l55 -325h10l55 325h200l-125 -500h-270z" />
    <glyph glyph-name="w" unicode="w" horiz-adv-x="800" 
d="M114 0l-100 500h196l41 -297h11l63 297h150l56 -297h11l48 297h196l-100 -500h-246l-39 215h-8l-43 -215h-236z" />
    <glyph glyph-name="x" unicode="x" horiz-adv-x="540" 
d="M213 500l56 -124h6l52 124h208l-125 -256l130 -244h-208l-62 135h-5l-57 -135h-208l130 258l-125 242h208z" />
    <glyph glyph-name="y" unicode="y" horiz-adv-x="520" 
d="M112 52l-112 448h200l55 -325h10l55 325h200l-125 -500q-28 -98 -70 -131.5t-121 -33.5h-194v130l94 18q72 16 94 36q12 11 20 27l-1 6h-105z" />
    <glyph glyph-name="z" unicode="z" horiz-adv-x="530" 
d="M25 100l196 244l-3 6h-158l-15 150h454v-100l-193 -244l3 -6h196v-150h-480v100z" />
    <glyph glyph-name="braceleft" unicode="{" horiz-adv-x="339" 
d="M241 102l-15 -94l83 -7l-9 -147q-131 0 -174 15q-53 18 -67 47q-9 19 -9 43l15 200l-65 16v112l65 16l-15 202q0 50 36 72q39 23 82 27q63 6 132 6l9 -147q-3 0 -83 -7l15 -96q0 -90 -56 -123v-12q56 -33 56 -123z" />
    <glyph glyph-name="bar" unicode="|" horiz-adv-x="420" 
d="M150 -180v884h120v-884h-120z" />
    <glyph glyph-name="braceright" unicode="}" horiz-adv-x="339" 
d="M113 8l-15 94q0 90 56 123v12q-56 33 -56 123l15 96q-80 7 -83 7l9 147q131 0 175 -15q52 -18 66 -47q9 -19 9 -43l-15 -202l65 -16v-112l-65 -16l15 -200q0 -50 -37 -72q-38 -23 -81 -27q-63 -6 -132 -6l-9 147z" />
    <glyph glyph-name="asciitilde" unicode="~" 
d="M509 237.5q-47 -34.5 -98.5 -34.5t-113.5 32.5t-84 32.5t-44 -16.5t-51 -49.5l-106 91q43 57 71 83q50 47 107 47q38 0 101.5 -34.5t93.5 -34.5q48 0 96 66l107 -90q-32 -58 -79 -92.5z" />
    <glyph glyph-name="exclamdown" unicode="&#xa1;" horiz-adv-x="330" 
d="M80 455h170l30 -428q0 -27 -37 -27h-156q-37 0 -37 27zM53 555q0 43 22.5 60t89 17t89 -17t22.5 -60t-22.5 -61t-88.5 -18t-89 18t-23 61z" />
    <glyph glyph-name="cent" unicode="&#xa2;" horiz-adv-x="459" 
d="M39 245q0 219 148 259l4 96h128l-4 -87q57 -5 104 -17l-28 -145h-70q-20 0 -32 -2.5t-23 -14t-12 -32.5l-6 -113q26 -3 65.5 -3t87.5 15l6 -145q-50 -20 -110 -21l-4 -99h-129l4 108q-69 16 -99 63t-30 138z" />
    <glyph glyph-name="sterling" unicode="&#xa3;" horiz-adv-x="586" 
d="M460 262h-152l-9 -102h222l25 -160h-506v100l50 35l14 127h-64v107h76l8 74q10 97 65.5 147.5t153 50.5t182.5 -19l-30 -145h-98q-34 0 -52 -9t-21 -40l-6 -59h152z" />
    <glyph glyph-name="yen" unicode="&#xa5;" horiz-adv-x="560" 
d="M221 625l56 -234h6l56 234h211l-96 -256h66v-107h-106l-19 -50h125v-107h-140v-105h-200v105h-140v107h124l-18 50h-106v107h66l-96 256h211z" />
    <glyph glyph-name="brokenbar" unicode="&#xa6;" horiz-adv-x="420" 
d="M150 368v336h120v-336h-120zM150 -180v336h120v-336h-120z" />
    <glyph glyph-name="section" unicode="&#xa7;" horiz-adv-x="588" 
d="M280 216h80v26q0 23 -5.5 29t-28.5 6h-80v-25q0 -23 5.5 -29.5t28.5 -6.5zM50 -91l22 122h268v34q-208 0 -258 73q-23 35 -23 98t23 106q-23 33 -23 88t13.5 90.5t33 54.5t55 29t64.5 12t77 2q116 0 212 -25l-22 -127h-227v-34q162 0 220 -46q29 -23 41 -51.5t12 -82.5
t-25 -97q25 -36 25 -82.5t-8 -75.5t-20 -48.5t-33.5 -33t-40.5 -20.5t-50 -11q-47 -5 -108 -5q-125 0 -228 30z" />
    <glyph glyph-name="dieresis" unicode="&#xa8;" horiz-adv-x="430" 
d="M42.5 569q-16.5 17 -16.5 60.5t16.5 61t63 17.5t63 -17.5t16.5 -61t-16 -60.5t-63 -17t-63.5 17zM261.5 569q-16.5 17 -16.5 60.5t16.5 61t63 17.5t63 -17.5t16.5 -61t-16 -60.5t-63 -17t-63.5 17z" />
    <glyph glyph-name="copyright" unicode="&#xa9;" horiz-adv-x="563" 
d="M261 364l33 -3q40 0 74 14l8 -87q-35 -14 -82 -14q-81 0 -111 37t-30 120t30 120t111 37q52 0 82 -14l-15 -78q-29 7 -55.5 7t-35.5 -4t-9 -15v-120zM30 431q0 127 59.5 189t192 62t192 -62t59.5 -189t-59.5 -189.5t-192 -62.5t-192 62.5t-59.5 189.5zM80 431
q0 -115 46 -160.5t156 -45.5t155.5 45.5t45.5 160.5t-45.5 160t-155.5 45t-156 -45t-46 -160z" />
    <glyph glyph-name="ordfeminine" unicode="&#xaa;" horiz-adv-x="458" 
d="M43 744q81 26 179 26t150 -29.5t52 -105.5v-279h-87l-42 42q-24 -25 -64 -39.5t-82 -14.5q-137 0 -137 131q0 76 56 103.5t163 27.5h24v36q-27 4 -76 4t-117 -18zM191 493v-31h16q45 0 48 22v34h-18q-31 0 -38.5 -7t-7.5 -18zM35 191v80q0 20 10.5 24.5t37.5 4.5h340v-78
q0 -20 -11.5 -25.5t-36.5 -5.5h-340z" />
    <glyph glyph-name="guillemotleft" unicode="&#xab;" horiz-adv-x="575" 
d="M25 300l194 175l81 -51l-100 -174l100 -174l-81 -51l-194 175v100zM275 300l194 175l81 -51l-100 -174l100 -174l-81 -51l-194 175v100z" />
    <glyph glyph-name="logicalnot" unicode="&#xac;" 
d="M72 240v144h455v-284h-134v140h-321z" />
    <glyph glyph-name="registered" unicode="&#xae;" horiz-adv-x="563" 
d="M30 431q0 127 59.5 189t192 62t192 -62t59.5 -189t-59.5 -189.5t-192 -62.5t-192 62.5t-59.5 189.5zM80 431q0 -115 46 -160.5t156 -45.5t155.5 45.5t45.5 160.5t-45.5 160t-155.5 45t-156 -45t-46 -160zM425 281h-112l-39 87h-12v-87h-102v300h151q105 0 105 -106
q0 -70 -43 -95zM262 498v-50h17q28 0 28 15v20q0 15 -28 15h-17z" />
    <glyph glyph-name="macron" unicode="&#xaf;" horiz-adv-x="399" 
d="M349 568h-246q-34 0 -43.5 12.5t-9.5 51.5v63h247q35 0 43.5 -12t8.5 -51v-64z" />
    <glyph glyph-name="degree" unicode="&#xb0;" horiz-adv-x="407" 
d="M30 531q0 88 41 130.5t132.5 42.5t132.5 -43t41 -130.5t-41 -130.5t-132.5 -43t-132.5 43t-41 131zM140 562v-101h63q23 0 33.5 1.5t19.5 10.5t9 27v100h-57q-25 0 -37 -1.5t-21.5 -10t-9.5 -26.5z" />
    <glyph glyph-name="plusminus" unicode="&#xb1;" 
d="M72 341v144h155v155h144v-155h156v-144h-156v-156h-144v156h-155zM72 0v144h455v-144h-455z" />
    <glyph glyph-name="twosuperior" unicode="&#xb2;" horiz-adv-x="400" 
d="M61 613l-19 111q69 17 134.5 17t90.5 -4t49 -16q48 -23 48 -108q0 -59 -31 -83t-144 -62v-15h169v-110h-322v82q0 56 24 79q10 11 15.5 17t22 15t23.5 12.5t29 13.5l71 32v32q-22 2 -57 2t-103 -15z" />
    <glyph glyph-name="threesuperior" unicode="&#xb3;" horiz-adv-x="400" 
d="M219 594v32q-28 2 -37 2q-59 0 -120 -14l-19 110q69 17 129.5 17t85.5 -3.5t48 -13.5q47 -20 47 -82t-42 -92q51 -26 51 -90q0 -94 -76 -115q-41 -11 -110.5 -11t-138.5 17l19 114q67 -16 106.5 -16t56.5 2v31l-103 11v89z" />
    <glyph glyph-name="acute" unicode="&#xb4;" horiz-adv-x="429" 
d="M285 574l-174 -35l-41 57l189 139q6 4 13 4t16 -11l63 -74q9 -10 9 -16.5t-2.5 -10t-46.5 -41.5q-10 -9 -26 -12z" />
    <glyph glyph-name="mu" unicode="&#xb5;" horiz-adv-x="590" 
d="M240 500v-369h31q36 0 52.5 7.5t16.5 34.5v327l200 15v-515h-100l-43 43q-37 -43 -123 -43h-72l-32 -165h-130v665h200z" />
    <glyph glyph-name="paragraph" unicode="&#xb6;" horiz-adv-x="604" 
d="M70 0v50l115 36v132q-155 21 -155 200q0 95 48 151t167 56h319v-160h-50v-465h-195v465h-30v-465h-219z" />
    <glyph glyph-name="periodcentered" unicode="&#xb7;" horiz-adv-x="277" 
d="M30 249q0 59 22 83t86.5 24t86.5 -24t22 -83t-22 -82t-86.5 -23t-86.5 23t-22 82z" />
    <glyph glyph-name="cedilla" unicode="&#xb8;" horiz-adv-x="469" 
d="M194 -26v47h61q36 -13 57 -41.5t21 -62.5t-28.5 -58t-78 -24t-109.5 19l11 88h33q21 0 27 5.5t6 26.5z" />
    <glyph glyph-name="onesuperior" unicode="&#xb9;" horiz-adv-x="400" 
d="M367 343h-314v110h95v143l-95 -5v109l131 32h104v-279h79v-110z" />
    <glyph glyph-name="ordmasculine" unicode="&#xba;" horiz-adv-x="472" 
d="M20 557q0 108 50 160.5t163 52.5t163 -52.5t50 -160.5t-50 -160.5t-163 -52.5t-163 52.5t-50 160.5zM201 618v-146h17q24 0 35.5 4.5t11.5 20.5v146h-18q-24 0 -35 -4.5t-11 -20.5zM35 191v80q0 20 10.5 24.5t37.5 4.5h340v-78q0 -20 -11.5 -25.5t-36.5 -5.5h-340z" />
    <glyph glyph-name="guillemotright" unicode="&#xbb;" horiz-adv-x="575" 
d="M356 475l194 -175v-100l-194 -175l-81 51l100 174l-100 174zM106 475l194 -175v-100l-194 -175l-81 51l100 174l-100 174z" />
    <glyph glyph-name="onequarter" unicode="&#xbc;" horiz-adv-x="971" 
d="M762 0v60h-184v84l94 245h224v-217h39v-112h-39v-60h-134zM762 172v123h-8l-45 -123h53zM373 227h-314v110h95v143l-95 -5v109l131 32h104v-279h79v-110zM689 665l-269 -680q-5 -10 -9 -14q-11 -11 -34 -11h-51l269 680q5 10 9 14q11 11 34 11h51z" />
    <glyph glyph-name="onehalf" unicode="&#xbd;" horiz-adv-x="971" 
d="M618 270l-19 111q69 17 134.5 17t90.5 -4t50 -16q47 -23 47 -108q0 -59 -31 -83t-144 -62v-15h169v-110h-322v82q0 56 23 80q11 10 16.5 16t22 15t23.5 12.5t30 13.5l70 32v32q-22 2 -57 2t-103 -15zM373 227h-314v110h95v143l-95 -5v109l131 32h104v-279h79v-110z
M659 665l-269 -680q-5 -10 -9 -14q-11 -11 -34 -11h-51l269 680q5 10 9 14q11 11 34 11h51z" />
    <glyph glyph-name="threequarters" unicode="&#xbe;" horiz-adv-x="971" 
d="M762 0v60h-184v84l94 245h224v-217h39v-112h-39v-60h-134zM762 172v123h-8l-45 -123h53zM235 478v32q-28 2 -37 2q-59 0 -120 -14l-19 110q69 17 129.5 17t85.5 -3.5t48 -13.5q47 -20 47 -82t-42 -92q51 -26 51 -90q0 -94 -76 -115q-41 -11 -110.5 -11t-138.5 17l19 114
q67 -16 106.5 -16t56.5 2v31l-103 11v89zM670 665l-269 -680q-5 -10 -9 -14q-11 -11 -34 -11h-51l269 680q5 10 9 14q11 11 34 11h51z" />
    <glyph glyph-name="questiondown" unicode="&#xbf;" horiz-adv-x="528" 
d="M210 323l17 127h170l15 -188q0 -18 -12 -28.5t-53 -24.5l-107 -37v-34q26 -2 59.5 -2t88.5 6.5t76 13.5l24 -143q-109 -28 -208 -28q-146 0 -194 39q-46 38 -46 116t38.5 114.5t131.5 68.5zM423 555q0 -43 -23 -61t-89 -18t-88.5 18t-22.5 61t22.5 60t89 17t89 -17
t22.5 -60z" />
    <glyph glyph-name="Agrave" unicode="&#xc0;" horiz-adv-x="609" 
d="M199 0h-211l162 625h309l162 -625h-211l-23 99h-165zM299 433l-41 -175h92l-40 175h-11zM378 664l-174 35q-16 3 -26 12l-45 39q-4 6 -4 12t9 17l63 74q9 11 16 11t13 -4l189 -139z" />
    <glyph glyph-name="Aacute" unicode="&#xc1;" horiz-adv-x="609" 
d="M199 0h-211l162 625h309l162 -625h-211l-23 99h-165zM299 433l-41 -175h92l-40 175h-11zM375 684l-174 -35l-41 57l189 139q6 4 13 4t16 -11l63 -74q9 -10 9 -16.5t-2.5 -10t-46.5 -41.5q-10 -9 -26 -12z" />
    <glyph glyph-name="Acircumflex" unicode="&#xc2;" horiz-adv-x="609" 
d="M199 0h-211l162 625h309l162 -625h-211l-23 99h-165zM299 433l-41 -175h92l-40 175h-11zM280 864h48q7 0 16 -9l113 -145l-60 -49l-93 63l-93 -63l-60 49l113 145q9 9 16 9z" />
    <glyph glyph-name="Atilde" unicode="&#xc3;" horiz-adv-x="609" 
d="M199 0h-211l162 625h309l162 -625h-211l-23 99h-165zM299 433l-41 -175h92l-40 175h-11zM447 840l50 -81q-119 -80 -133.5 -86t-28.5 -6t-22.5 2t-18.5 7.5t-15.5 9.5t-18 13t-17.5 13l-82 -40l-50 81q119 80 133.5 86t28.5 6t22.5 -2t18.5 -7.5t15.5 -9.5t18 -13
t17.5 -13z" />
    <glyph glyph-name="Adieresis" unicode="&#xc4;" horiz-adv-x="609" 
d="M199 0h-211l162 625h309l162 -625h-211l-23 99h-165zM299 433l-41 -175h92l-40 175h-11zM131.5 693q-16.5 17 -16.5 60.5t16.5 61t63 17.5t63 -17.5t16.5 -61t-16 -60.5t-63 -17t-63.5 17zM350.5 693q-16.5 17 -16.5 60.5t16.5 61t63 17.5t63 -17.5t16.5 -61t-16 -60.5
t-63 -17t-63.5 17z" />
    <glyph glyph-name="Aring" unicode="&#xc5;" horiz-adv-x="609" 
d="M199 0h-211l162 625h309l162 -625h-211l-23 99h-165zM299 433l-41 -175h92l-40 175h-11zM216 679.5q-27 28.5 -27 87t27 87t88.5 28.5t88.5 -28.5t27 -87t-27 -87t-88.5 -28.5t-88.5 28.5zM262 788v-68h42q15 0 22 1q20 3 20 25v67h-39q-30 0 -37.5 -7t-7.5 -18z" />
    <glyph glyph-name="AE" unicode="&#xc6;" horiz-adv-x="811" 
d="M199 0h-211l162 625h590l-25 -160h-215l22 -84h178v-145h-140l19 -76h212v-160h-381l-23 99h-165zM299 433l-41 -175h92l-40 175h-11z" />
    <glyph glyph-name="Ccedilla" unicode="&#xc7;" horiz-adv-x="500" 
d="M465 179l15 -168q-63 -26 -158 -26t-152.5 20t-90.5 63t-46 101t-13 143t13 143.5t46 101.5q64 83 235 83q38 0 89.5 -7.5t76.5 -18.5l-30 -153q-65 14 -119 14t-75 -10t-21 -40v-262q39 -8 79 -8q85 0 151 24zM224 -26v47h61q36 -13 57 -41.5t21 -62.5t-28.5 -58
t-78 -24t-109.5 19l11 88h33q21 0 27 5.5t6 26.5z" />
    <glyph glyph-name="Egrave" unicode="&#xc8;" horiz-adv-x="530" 
d="M450 236h-200v-76h245v-160h-445v625h440l-25 -160h-215v-84h200v-145zM328 664l-174 35q-16 3 -26 12l-45 39q-4 6 -4 12t9 17l63 74q9 11 16 11t13 -4l189 -139z" />
    <glyph glyph-name="Eacute" unicode="&#xc9;" horiz-adv-x="530" 
d="M450 236h-200v-76h245v-160h-445v625h440l-25 -160h-215v-84h200v-145zM326 684l-174 -35l-41 57l189 139q6 4 13 4t16 -11l63 -74q9 -10 9 -16.5t-2.5 -10t-46.5 -41.5q-10 -9 -26 -12z" />
    <glyph glyph-name="Ecircumflex" unicode="&#xca;" horiz-adv-x="530" 
d="M450 236h-200v-76h245v-160h-445v625h440l-25 -160h-215v-84h200v-145zM231 864h48q7 0 16 -9l113 -145l-60 -49l-93 63l-93 -63l-60 49l113 145q9 9 16 9z" />
    <glyph glyph-name="Edieresis" unicode="&#xcb;" horiz-adv-x="530" 
d="M450 236h-200v-76h245v-160h-445v625h440l-25 -160h-215v-84h200v-145zM82.5 693q-16.5 17 -16.5 60.5t16.5 61t63 17.5t63 -17.5t16.5 -61t-16 -60.5t-63 -17t-63.5 17zM301.5 693q-16.5 17 -16.5 60.5t16.5 61t63 17.5t63 -17.5t16.5 -61t-16 -60.5t-63 -17t-63.5 17z
" />
    <glyph glyph-name="Igrave" unicode="&#xcc;" horiz-adv-x="300" 
d="M50 0v625h200v-625h-200zM224 664l-174 35q-16 3 -26 12l-45 39q-4 6 -4 12t9 17l63 74q9 11 16 11t13 -4l189 -139z" />
    <glyph glyph-name="Iacute" unicode="&#xcd;" horiz-adv-x="300" 
d="M50 0v625h200v-625h-200zM221 684l-174 -35l-41 57l189 139q6 4 13 4t16 -11l63 -74q9 -10 9 -16.5t-2.5 -10t-46.5 -41.5q-10 -9 -26 -12z" />
    <glyph glyph-name="Icircumflex" unicode="&#xce;" horiz-adv-x="300" 
d="M50 0v625h200v-625h-200zM126 864h48q7 0 16 -9l113 -145l-60 -49l-93 63l-93 -63l-60 49l113 145q9 9 16 9z" />
    <glyph glyph-name="Idieresis" unicode="&#xcf;" horiz-adv-x="300" 
d="M50 0v625h200v-625h-200zM-22.5 693q-16.5 17 -16.5 60.5t16.5 61t63 17.5t63 -17.5t16.5 -61t-16 -60.5t-63 -17t-63.5 17zM196.5 693q-16.5 17 -16.5 60.5t16.5 61t63 17.5t63 -17.5t16.5 -61t-16 -60.5t-63 -17t-63.5 17z" />
    <glyph glyph-name="Eth" unicode="&#xd0;" horiz-adv-x="645" 
d="M0 243v98q0 22 12 29t38 8v247h280q169 0 232 -72t63 -240.5t-63 -240.5t-232 -72h-280v243h-50zM333 465h-83v-87h80v-97q0 -24 -15 -31t-47 -7h-18v-83h83q41 0 59.5 9.5t18.5 43.5v199q0 34 -18.5 43.5t-59.5 9.5z" />
    <glyph glyph-name="Ntilde" unicode="&#xd1;" horiz-adv-x="655" 
d="M417 0l-153 222q-8 11 -10 48h-4v-270h-200v625h188l153 -222q8 -11 10 -48h4v270h200v-625h-188zM470 840l50 -81q-119 -80 -133.5 -86t-28.5 -6t-22.5 2t-18.5 7.5t-15.5 9.5t-18 13t-17.5 13l-82 -40l-50 81q119 80 133.5 86t28.5 6t22.5 -2t18.5 -7.5t15.5 -9.5
t18 -13t17.5 -13z" />
    <glyph glyph-name="Ograve" unicode="&#xd2;" horiz-adv-x="630" 
d="M20 312q0 171 64 249.5t231 78.5t231 -78.5t64 -249.5q0 -85 -13.5 -143t-46.5 -101t-91 -63t-144 -20t-144 20t-91 63t-46.5 101t-13.5 143zM235 416v-260h83q41 0 59.5 9.5t18.5 43.5v260h-84q-40 0 -58.5 -9.5t-18.5 -43.5zM388 664l-174 35q-16 3 -26 12l-45 39
q-4 6 -4 12t9 17l63 74q9 11 16 11t13 -4l189 -139z" />
    <glyph glyph-name="Oacute" unicode="&#xd3;" horiz-adv-x="630" 
d="M20 312q0 171 64 249.5t231 78.5t231 -78.5t64 -249.5q0 -85 -13.5 -143t-46.5 -101t-91 -63t-144 -20t-144 20t-91 63t-46.5 101t-13.5 143zM235 416v-260h83q41 0 59.5 9.5t18.5 43.5v260h-84q-40 0 -58.5 -9.5t-18.5 -43.5zM386 684l-174 -35l-41 57l189 139q6 4 13 4
t16 -11l63 -74q9 -10 9 -16.5t-2.5 -10t-46.5 -41.5q-10 -9 -26 -12z" />
    <glyph glyph-name="Ocircumflex" unicode="&#xd4;" horiz-adv-x="630" 
d="M20 312q0 171 64 249.5t231 78.5t231 -78.5t64 -249.5q0 -85 -13.5 -143t-46.5 -101t-91 -63t-144 -20t-144 20t-91 63t-46.5 101t-13.5 143zM235 416v-260h83q41 0 59.5 9.5t18.5 43.5v260h-84q-40 0 -58.5 -9.5t-18.5 -43.5zM291 864h48q7 0 16 -9l113 -145l-60 -49
l-93 63l-93 -63l-60 49l113 145q9 9 16 9z" />
    <glyph glyph-name="Otilde" unicode="&#xd5;" horiz-adv-x="630" 
d="M20 312q0 171 64 249.5t231 78.5t231 -78.5t64 -249.5q0 -85 -13.5 -143t-46.5 -101t-91 -63t-144 -20t-144 20t-91 63t-46.5 101t-13.5 143zM235 416v-260h83q41 0 59.5 9.5t18.5 43.5v260h-84q-40 0 -58.5 -9.5t-18.5 -43.5zM458 840l50 -81q-119 -80 -133.5 -86
t-28.5 -6t-22.5 2t-18.5 7.5t-15.5 9.5t-18 13t-17.5 13l-82 -40l-50 81q119 80 133.5 86t28.5 6t22.5 -2t18.5 -7.5t15.5 -9.5t18 -13t17.5 -13z" />
    <glyph glyph-name="Odieresis" unicode="&#xd6;" horiz-adv-x="630" 
d="M20 312q0 171 64 249.5t231 78.5t231 -78.5t64 -249.5q0 -85 -13.5 -143t-46.5 -101t-91 -63t-144 -20t-144 20t-91 63t-46.5 101t-13.5 143zM235 416v-260h83q41 0 59.5 9.5t18.5 43.5v260h-84q-40 0 -58.5 -9.5t-18.5 -43.5zM142.5 693q-16.5 17 -16.5 60.5t16.5 61
t63 17.5t63 -17.5t16.5 -61t-16 -60.5t-63 -17t-63.5 17zM361.5 693q-16.5 17 -16.5 60.5t16.5 61t63 17.5t63 -17.5t16.5 -61t-16 -60.5t-63 -17t-63.5 17z" />
    <glyph glyph-name="multiply" unicode="&#xd7;" 
d="M164 75l-102 102l135 135l-135 135l102 102l135 -135l135 135l102 -102l-135 -135l135 -135l-102 -102l-135 135z" />
    <glyph glyph-name="Oslash" unicode="&#xd8;" horiz-adv-x="630" 
d="M464 486h-15l-193 -337h15l-94 -164q-5 -10 -9 -14q-11 -11 -34 -11h-71l108 189h14l193 337h-14l88 154q5 10 9 14q11 11 34 11h71zM20 312q0 171 64 249.5t231 78.5t231 -78.5t64 -249.5q0 -85 -13.5 -143t-46.5 -101t-91 -63t-144 -20t-144 20t-91 63t-46.5 101
t-13.5 143zM235 416v-260h83q41 0 59.5 9.5t18.5 43.5v260h-84q-40 0 -58.5 -9.5t-18.5 -43.5z" />
    <glyph glyph-name="Ugrave" unicode="&#xd9;" horiz-adv-x="617" 
d="M240 625v-469h71q38 0 52 9.5t14 43.5v416h200v-351q0 -85 -11 -137t-41 -88t-82 -50t-135 -14t-134.5 14t-81.5 50t-41 88t-11 137v351h200zM382 664l-174 35q-16 3 -26 12l-45 39q-4 6 -4 12t9 17l63 74q9 11 16 11t13 -4l189 -139z" />
    <glyph glyph-name="Uacute" unicode="&#xda;" horiz-adv-x="617" 
d="M240 625v-469h71q38 0 52 9.5t14 43.5v416h200v-351q0 -85 -11 -137t-41 -88t-82 -50t-135 -14t-134.5 14t-81.5 50t-41 88t-11 137v351h200zM379 684l-174 -35l-41 57l189 139q6 4 13 4t16 -11l63 -74q9 -10 9 -16.5t-2.5 -10t-46.5 -41.5q-10 -9 -26 -12z" />
    <glyph glyph-name="Ucircumflex" unicode="&#xdb;" horiz-adv-x="617" 
d="M240 625v-469h71q38 0 52 9.5t14 43.5v416h200v-351q0 -85 -11 -137t-41 -88t-82 -50t-135 -14t-134.5 14t-81.5 50t-41 88t-11 137v351h200zM284 864h48q7 0 16 -9l113 -145l-60 -49l-93 63l-93 -63l-60 49l113 145q9 9 16 9z" />
    <glyph glyph-name="Udieresis" unicode="&#xdc;" horiz-adv-x="617" 
d="M240 625v-469h71q38 0 52 9.5t14 43.5v416h200v-351q0 -85 -11 -137t-41 -88t-82 -50t-135 -14t-134.5 14t-81.5 50t-41 88t-11 137v351h200zM135.5 693q-16.5 17 -16.5 60.5t16.5 61t63 17.5t63 -17.5t16.5 -61t-16 -60.5t-63 -17t-63.5 17zM354.5 693
q-16.5 17 -16.5 60.5t16.5 61t63 17.5t63 -17.5t16.5 -61t-16 -60.5t-63 -17t-63.5 17z" />
    <glyph glyph-name="Yacute" unicode="&#xdd;" horiz-adv-x="560" 
d="M221 625l55 -220h7l56 220h221l-180 -455v-170h-200v170l-180 455h221zM351 698l-174 -35l-41 57l189 139q6 4 13 4t16 -11l63 -74q9 -10 9 -16.5t-2.5 -10t-46.5 -41.5q-10 -9 -26 -12z" />
    <glyph glyph-name="Thorn" unicode="&#xde;" horiz-adv-x="590" 
d="M380 76h-130v-76h-200v625h200v-75h115q215 0 215 -231q0 -127 -56 -187q-21 -24 -58 -40t-86 -16zM250 390v-154h46q36 0 52.5 7.5t16.5 34.5v70q0 27 -16.5 34.5t-52.5 7.5h-46z" />
    <glyph glyph-name="germandbls" unicode="&#xdf;" horiz-adv-x="672" 
d="M20 370v130h50l7 60q8 75 81 97q62 18 172 18q222 0 222 -160q0 -32 -20 -87.5t-62 -113.5q93 0 132.5 -42.5t39.5 -120.5q0 -166 -198 -166q-104 0 -138 14l20 142q44 -11 83.5 -11t40.5 4v32q-70 0 -104 24t-34 80q0 39 21.5 111t21.5 93q0 45 -50 45q-16 0 -35 -4
v-515h-200v370h-50z" />
    <glyph glyph-name="agrave" unicode="&#xe0;" horiz-adv-x="567" 
d="M287 515q240 0 240 -165v-350h-100l-57 57q-29 -34 -79 -53t-94.5 -19t-71.5 7t-53 24q-57 36 -57 134q0 180 272 180h40v36q-32 2 -53 2q-113 0 -194 -27l-24 143q100 31 231 31zM217 172v-41h41q44 0 56.5 10t12.5 26v47h-41q-36 0 -52.5 -7.5t-16.5 -34.5zM354 539
l-174 35q-16 3 -26 12l-45 39q-4 6 -4 12.5t9 16.5l63 74q9 11 16 11t13 -4l189 -139z" />
    <glyph glyph-name="aacute" unicode="&#xe1;" horiz-adv-x="567" 
d="M287 515q240 0 240 -165v-350h-100l-57 57q-29 -34 -79 -53t-94.5 -19t-71.5 7t-53 24q-57 36 -57 134q0 180 272 180h40v36q-32 2 -53 2q-113 0 -194 -27l-24 143q100 31 231 31zM217 172v-41h41q44 0 56.5 10t12.5 26v47h-41q-36 0 -52.5 -7.5t-16.5 -34.5zM386 574
l-174 -35l-41 57l189 139q6 4 13 4t16 -11l63 -74q9 -10 9 -16.5t-2.5 -10t-46.5 -41.5q-10 -9 -26 -12z" />
    <glyph glyph-name="acircumflex" unicode="&#xe2;" horiz-adv-x="567" 
d="M287 515q240 0 240 -165v-350h-100l-57 57q-29 -34 -79 -53t-94.5 -19t-71.5 7t-53 24q-57 36 -57 134q0 180 272 180h40v36q-32 2 -53 2q-113 0 -194 -27l-24 143q100 31 231 31zM217 172v-41h41q44 0 56.5 10t12.5 26v47h-41q-36 0 -52.5 -7.5t-16.5 -34.5zM256 740h48
q7 0 16 -9l113 -145l-60 -49l-93 63l-93 -63l-60 49l113 145q9 9 16 9z" />
    <glyph glyph-name="atilde" unicode="&#xe3;" horiz-adv-x="567" 
d="M287 515q240 0 240 -165v-350h-100l-57 57q-29 -34 -79 -53t-94.5 -19t-71.5 7t-53 24q-57 36 -57 134q0 180 272 180h40v36q-32 2 -53 2q-113 0 -194 -27l-24 143q100 31 231 31zM217 172v-41h41q44 0 56.5 10t12.5 26v47h-41q-36 0 -52.5 -7.5t-16.5 -34.5zM424 716
l50 -81q-119 -80 -133.5 -86t-28.5 -6t-22.5 2t-18.5 7.5t-15.5 9.5t-18 13t-17.5 13l-82 -40l-50 81q119 80 133.5 86t28.5 6t22.5 -2t18.5 -7.5t15.5 -9.5t18 -13t17.5 -13z" />
    <glyph glyph-name="adieresis" unicode="&#xe4;" horiz-adv-x="567" 
d="M287 515q240 0 240 -165v-350h-100l-57 57q-29 -34 -79 -53t-94.5 -19t-71.5 7t-53 24q-57 36 -57 134q0 180 272 180h40v36q-32 2 -53 2q-113 0 -194 -27l-24 143q100 31 231 31zM217 172v-41h41q44 0 56.5 10t12.5 26v47h-41q-36 0 -52.5 -7.5t-16.5 -34.5zM108.5 569
q-16.5 17 -16.5 60.5t16.5 61t63 17.5t63 -17.5t16.5 -61t-16 -60.5t-63 -17t-63.5 17zM327.5 569q-16.5 17 -16.5 60.5t16.5 61t63 17.5t63 -17.5t16.5 -61t-16 -60.5t-63 -17t-63.5 17z" />
    <glyph glyph-name="aring" unicode="&#xe5;" horiz-adv-x="567" 
d="M287 515q240 0 240 -165v-350h-100l-57 57q-29 -34 -79 -53t-94.5 -19t-71.5 7t-53 24q-57 36 -57 134q0 180 272 180h40v36q-32 2 -53 2q-113 0 -194 -27l-24 143q100 31 231 31zM217 172v-41h41q44 0 56.5 10t12.5 26v47h-41q-36 0 -52.5 -7.5t-16.5 -34.5zM193 555.5
q-27 28.5 -27 87t27 87t88.5 28.5t88.5 -28.5t27 -87t-27 -87t-88.5 -28.5t-88.5 28.5zM239 664v-68h42q15 0 22 1q20 3 20 25v67h-39q-30 0 -37.5 -7t-7.5 -18z" />
    <glyph glyph-name="ae" unicode="&#xe6;" horiz-adv-x="852" 
d="M56 484q100 31 212.5 31t169.5 -25q53 25 139 25q139 0 192 -38t53 -142q0 -88 -63.5 -126.5t-231.5 -38.5v-35q30 -3 60 -3q98 0 188 30l24 -147q-112 -30 -222 -30q-147 0 -204 75q-60 -75 -175 -75q-91 0 -137 38.5t-46 126.5q0 180 272 180h40v36q-32 2 -53 2
q-113 0 -194 -27zM527 327v-41h41q36 0 52.5 7.5t16.5 34.5v41h-41q-36 0 -52.5 -7.5t-16.5 -34.5zM217 172v-41h41q34 0 50.5 6.5t18.5 29.5v47h-41q-36 0 -52.5 -7.5t-16.5 -34.5z" />
    <glyph glyph-name="ccedilla" unicode="&#xe7;" horiz-adv-x="459" 
d="M417 150l12 -144q-52 -21 -134 -21q-140 0 -202.5 65.5t-62.5 199.5t62.5 199.5t202.5 65.5q87 0 134 -21l-24 -136q-53 11 -84 11q-76 0 -76 -53v-179q29 -6 74.5 -6t97.5 19zM208 -26v47h61q36 -13 57 -41.5t21 -62.5t-28.5 -58t-78 -24t-109.5 19l11 88h33
q21 0 27 5.5t6 26.5z" />
    <glyph glyph-name="egrave" unicode="&#xe8;" horiz-adv-x="565" 
d="M245 170v-35q30 -3 60 -3q93 0 188 30l24 -147q-112 -30 -222 -30q-140 0 -202.5 65.5t-62.5 199.5t62.5 199.5t202 65.5t192.5 -38t53 -142q0 -88 -63.5 -126.5t-231.5 -38.5zM245 327v-41h41q36 0 52.5 7.5t16.5 34.5v41h-41q-36 0 -52.5 -7.5t-16.5 -34.5zM353 539
l-174 35q-16 3 -26 12l-45 39q-4 6 -4 12.5t9 16.5l63 74q9 11 16 11t13 -4l189 -139z" />
    <glyph glyph-name="eacute" unicode="&#xe9;" horiz-adv-x="565" 
d="M245 170v-35q30 -3 60 -3q93 0 188 30l24 -147q-112 -30 -222 -30q-140 0 -202.5 65.5t-62.5 199.5t62.5 199.5t202 65.5t192.5 -38t53 -142q0 -88 -63.5 -126.5t-231.5 -38.5zM245 327v-41h41q36 0 52.5 7.5t16.5 34.5v41h-41q-36 0 -52.5 -7.5t-16.5 -34.5zM390 574
l-174 -35l-41 57l189 139q6 4 13 4t16 -11l63 -74q9 -10 9 -16.5t-2.5 -10t-46.5 -41.5q-10 -9 -26 -12z" />
    <glyph glyph-name="ecircumflex" unicode="&#xea;" horiz-adv-x="565" 
d="M245 170v-35q30 -3 60 -3q93 0 188 30l24 -147q-112 -30 -222 -30q-140 0 -202.5 65.5t-62.5 199.5t62.5 199.5t202 65.5t192.5 -38t53 -142q0 -88 -63.5 -126.5t-231.5 -38.5zM245 327v-41h41q36 0 52.5 7.5t16.5 34.5v41h-41q-36 0 -52.5 -7.5t-16.5 -34.5zM260 740h48
q7 0 16 -9l113 -145l-60 -49l-93 63l-93 -63l-60 49l113 145q9 9 16 9z" />
    <glyph glyph-name="edieresis" unicode="&#xeb;" horiz-adv-x="565" 
d="M245 170v-35q30 -3 60 -3q93 0 188 30l24 -147q-112 -30 -222 -30q-140 0 -202.5 65.5t-62.5 199.5t62.5 199.5t202 65.5t192.5 -38t53 -142q0 -88 -63.5 -126.5t-231.5 -38.5zM245 327v-41h41q36 0 52.5 7.5t16.5 34.5v41h-41q-36 0 -52.5 -7.5t-16.5 -34.5zM112.5 569
q-16.5 17 -16.5 60.5t16.5 61t63 17.5t63 -17.5t16.5 -61t-16 -60.5t-63 -17t-63.5 17zM331.5 569q-16.5 17 -16.5 60.5t16.5 61t63 17.5t63 -17.5t16.5 -61t-16 -60.5t-63 -17t-63.5 17z" />
    <glyph glyph-name="igrave" unicode="&#xec;" horiz-adv-x="300" 
d="M50 0v475l200 25v-500h-200zM221 539l-174 35q-16 3 -26 12l-45 39q-4 6 -4 12.5t9 16.5l63 74q9 11 16 11t13 -4l189 -139z" />
    <glyph glyph-name="iacute" unicode="&#xed;" horiz-adv-x="300" 
d="M50 0v475l200 25v-500h-200zM252 574l-174 -35l-41 57l189 139q6 4 13 4t16 -11l63 -74q9 -10 9 -16.5t-2.5 -10t-46.5 -41.5q-10 -9 -26 -12z" />
    <glyph glyph-name="icircumflex" unicode="&#xee;" horiz-adv-x="300" 
d="M50 0v475l200 25v-500h-200zM123 740h48q7 0 16 -9l113 -145l-60 -49l-93 63l-93 -63l-60 49l113 145q9 9 16 9z" />
    <glyph glyph-name="idieresis" unicode="&#xef;" horiz-adv-x="300" 
d="M50 0v475l200 25v-500h-200zM-25.5 569q-16.5 17 -16.5 60.5t16.5 61t63 17.5t63 -17.5t16.5 -61t-16 -60.5t-63 -17t-63.5 17zM193.5 569q-16.5 17 -16.5 60.5t16.5 61t63 17.5t63 -17.5t16.5 -61t-16 -60.5t-63 -17t-63.5 17z" />
    <glyph glyph-name="eth" unicode="&#xf0;" horiz-adv-x="590" 
d="M334 665l54 -66l107 35l15 -53q0 -15 -7.5 -21.5t-29.5 -13.5l-37 -12q124 -182 124 -319q0 -108 -64 -169t-198 -61t-201 54.5t-67 131.5t59.5 135t155.5 58h77l-62 112l-102 -33l-15 53q0 15 7.5 21.5t29.5 13.5l42 14l-59 107zM245 184v-53h31q36 0 52.5 7.5
t16.5 34.5v53h-31q-36 0 -52.5 -7.5t-16.5 -34.5z" />
    <glyph glyph-name="ntilde" unicode="&#xf1;" horiz-adv-x="595" 
d="M150 500l50 -50q93 65 200 65q70 0 110 -30.5t40 -84.5v-400h-200v350h-31q-34 0 -51.5 -7.5t-17.5 -30.5v-312h-200v500h100zM440 716l50 -81q-119 -80 -133.5 -86t-28.5 -6t-22.5 2t-18.5 7.5t-15.5 9.5t-18 13t-17.5 13l-82 -40l-50 81q119 80 133.5 86t28.5 6
t22.5 -2t18.5 -7.5t15.5 -9.5t18 -13t17.5 -13z" />
    <glyph glyph-name="ograve" unicode="&#xf2;" horiz-adv-x="590" 
d="M30 250q0 134 62.5 199.5t202.5 65.5t202.5 -65.5t62.5 -199.5t-62.5 -199.5t-202.5 -65.5t-202.5 65.5t-62.5 199.5zM245 327v-196h31q36 0 52.5 7.5t16.5 34.5v196h-31q-36 0 -52.5 -7.5t-16.5 -34.5zM368 539l-174 35q-16 3 -26 12l-45 39q-4 6 -4 12.5t9 16.5l63 74
q9 11 16 11t13 -4l189 -139z" />
    <glyph glyph-name="oacute" unicode="&#xf3;" horiz-adv-x="590" 
d="M30 250q0 134 62.5 199.5t202.5 65.5t202.5 -65.5t62.5 -199.5t-62.5 -199.5t-202.5 -65.5t-202.5 65.5t-62.5 199.5zM245 327v-196h31q36 0 52.5 7.5t16.5 34.5v196h-31q-36 0 -52.5 -7.5t-16.5 -34.5zM400 574l-174 -35l-41 57l189 139q6 4 13 4t16 -11l63 -74
q9 -10 9 -16.5t-2.5 -10t-46.5 -41.5q-10 -9 -26 -12z" />
    <glyph glyph-name="ocircumflex" unicode="&#xf4;" horiz-adv-x="590" 
d="M30 250q0 134 62.5 199.5t202.5 65.5t202.5 -65.5t62.5 -199.5t-62.5 -199.5t-202.5 -65.5t-202.5 65.5t-62.5 199.5zM245 327v-196h31q36 0 52.5 7.5t16.5 34.5v196h-31q-36 0 -52.5 -7.5t-16.5 -34.5zM270 740h48q7 0 16 -9l113 -145l-60 -49l-93 63l-93 -63l-60 49
l113 145q9 9 16 9z" />
    <glyph glyph-name="otilde" unicode="&#xf5;" horiz-adv-x="590" 
d="M30 250q0 134 62.5 199.5t202.5 65.5t202.5 -65.5t62.5 -199.5t-62.5 -199.5t-202.5 -65.5t-202.5 65.5t-62.5 199.5zM245 327v-196h31q36 0 52.5 7.5t16.5 34.5v196h-31q-36 0 -52.5 -7.5t-16.5 -34.5zM438 716l50 -81q-119 -80 -133.5 -86t-28.5 -6t-22.5 2t-18.5 7.5
t-15.5 9.5t-18 13t-17.5 13l-82 -40l-50 81q119 80 133.5 86t28.5 6t22.5 -2t18.5 -7.5t15.5 -9.5t18 -13t17.5 -13z" />
    <glyph glyph-name="odieresis" unicode="&#xf6;" horiz-adv-x="590" 
d="M30 250q0 134 62.5 199.5t202.5 65.5t202.5 -65.5t62.5 -199.5t-62.5 -199.5t-202.5 -65.5t-202.5 65.5t-62.5 199.5zM245 327v-196h31q36 0 52.5 7.5t16.5 34.5v196h-31q-36 0 -52.5 -7.5t-16.5 -34.5zM122.5 569q-16.5 17 -16.5 60.5t16.5 61t63 17.5t63 -17.5
t16.5 -61t-16 -60.5t-63 -17t-63.5 17zM341.5 569q-16.5 17 -16.5 60.5t16.5 61t63 17.5t63 -17.5t16.5 -61t-16 -60.5t-63 -17t-63.5 17z" />
    <glyph glyph-name="divide" unicode="&#xf7;" 
d="M72 240v144h455v-144h-455zM377 547v-90q0 -29 -39 -29h-80q-39 0 -39 29v90q0 28 39 28h80q39 0 39 -28zM377 167v-90q0 -29 -39 -29h-80q-39 0 -39 29v90q0 28 39 28h80q39 0 39 -28z" />
    <glyph glyph-name="oslash" unicode="&#xf8;" horiz-adv-x="590" 
d="M240 100l172 300h-61l-172 -300h61zM151 85h100l-94 -164q-5 -10 -9 -14q-11 -11 -34 -11h-71zM444 422l102 179h-71q-23 0 -34 -11q-4 -4 -9 -14l-88 -154h100zM30 250q0 134 62.5 199.5t202.5 65.5t202.5 -65.5t62.5 -199.5t-62.5 -199.5t-202.5 -65.5t-202.5 65.5
t-62.5 199.5zM245 327q0 27 16.5 34.5t52.5 7.5h31v-196q0 -27 -16.5 -34.5t-52.5 -7.5h-31v196z" />
    <glyph glyph-name="ugrave" unicode="&#xf9;" horiz-adv-x="590" 
d="M240 500v-369h31q36 0 52.5 7.5t16.5 34.5v327h200v-500h-100l-58 57q-60 -72 -171 -72q-89 0 -130 38t-41 127v350h200zM368 539l-174 35q-16 3 -26 12l-45 39q-4 6 -4 12.5t9 16.5l63 74q9 11 16 11t13 -4l189 -139z" />
    <glyph glyph-name="uacute" unicode="&#xfa;" horiz-adv-x="590" 
d="M240 500v-369h31q36 0 52.5 7.5t16.5 34.5v327h200v-500h-100l-58 57q-60 -72 -171 -72q-89 0 -130 38t-41 127v350h200zM400 574l-174 -35l-41 57l189 139q6 4 13 4t16 -11l63 -74q9 -10 9 -16.5t-2.5 -10t-46.5 -41.5q-10 -9 -26 -12z" />
    <glyph glyph-name="ucircumflex" unicode="&#xfb;" horiz-adv-x="590" 
d="M240 500v-369h31q36 0 52.5 7.5t16.5 34.5v327h200v-500h-100l-58 57q-60 -72 -171 -72q-89 0 -130 38t-41 127v350h200zM270 740h48q7 0 16 -9l113 -145l-60 -49l-93 63l-93 -63l-60 49l113 145q9 9 16 9z" />
    <glyph glyph-name="udieresis" unicode="&#xfc;" horiz-adv-x="590" 
d="M240 500v-369h31q36 0 52.5 7.5t16.5 34.5v327h200v-500h-100l-58 57q-60 -72 -171 -72q-89 0 -130 38t-41 127v350h200zM122.5 569q-16.5 17 -16.5 60.5t16.5 61t63 17.5t63 -17.5t16.5 -61t-16 -60.5t-63 -17t-63.5 17zM341.5 569q-16.5 17 -16.5 60.5t16.5 61t63 17.5
t63 -17.5t16.5 -61t-16 -60.5t-63 -17t-63.5 17z" />
    <glyph glyph-name="yacute" unicode="&#xfd;" horiz-adv-x="520" 
d="M112 52l-112 448h200l55 -325h10l55 325h200l-125 -500q-28 -98 -70 -131.5t-121 -33.5h-194v130l94 18q72 16 94 36q12 11 20 27l-1 6h-105zM331 574l-174 -35l-41 57l189 139q6 4 13 4t16 -11l63 -74q9 -10 9 -16.5t-2.5 -10t-46.5 -41.5q-10 -9 -26 -12z" />
    <glyph glyph-name="thorn" unicode="&#xfe;" horiz-adv-x="420" 
d="M-47 650l200 15v-166q38 16 99.5 16t105.5 -23t67 -63q43 -75 43 -179q0 -141 -65 -203t-191 -62q-27 0 -59 2v-137l-200 -15v815zM153 332v-201h31q36 0 52.5 7.5t16.5 34.5v196h-31q-22 0 -35 -2t-23 -10.5t-11 -24.5z" />
    <glyph glyph-name="ydieresis" unicode="&#xff;" horiz-adv-x="520" 
d="M112 52l-112 448h200l55 -325h10l55 325h200l-125 -500q-28 -98 -70 -131.5t-121 -33.5h-194v130l94 18q72 16 94 36q12 11 20 27l-1 6h-105zM87.5 569q-16.5 17 -16.5 60.5t16.5 61t63 17.5t63 -17.5t16.5 -61t-16 -60.5t-63 -17t-63.5 17zM306.5 569
q-16.5 17 -16.5 60.5t16.5 61t63 17.5t63 -17.5t16.5 -61t-16 -60.5t-63 -17t-63.5 17z" />
    <glyph glyph-name="dotlessi" unicode="&#x131;" horiz-adv-x="300" 
d="M50 0v475l200 25v-500h-200z" />
    <glyph glyph-name="Lslash" unicode="&#x141;" horiz-adv-x="455" 
d="M0 220q-33 101 -33 108q0 23 50 39l302 99q32 -101 32 -112q0 -20 -50 -36zM450 0h-400v625h200v-465h200v-160z" />
    <glyph glyph-name="lslash" unicode="&#x142;" horiz-adv-x="309" 
d="M0 220q-33 101 -33 108q0 23 50 39l302 99q32 -101 32 -112q0 -20 -50 -36zM250 665v-522q32 -6 49 -7l-9 -147q-128 0 -169 15q-51 19 -63 48q-8 18 -8 42v556z" />
    <glyph glyph-name="OE" unicode="&#x152;" horiz-adv-x="856" 
d="M821 0h-380q-53 -15 -132.5 -15t-137.5 20t-91 63t-46.5 101t-13.5 143q0 171 64 249.5t231 78.5q73 0 126 -15h375l-25 -160h-195v-84h180v-145h-180v-76h225v-160zM235 416v-260h83q26 0 40 2.5t25.5 13t12.5 30.5v267h-84q-40 0 -58.5 -9.5t-18.5 -43.5z" />
    <glyph glyph-name="oe" unicode="&#x153;" horiz-adv-x="887" 
d="M30 250q0 134 62.5 199.5t202.5 65.5t202.5 -65.5t62.5 -199.5t-62.5 -199.5t-202.5 -65.5t-202.5 65.5t-62.5 199.5zM245 327v-196h31q36 0 52.5 7.5t16.5 34.5v196h-31q-36 0 -52.5 -7.5t-16.5 -34.5zM562 170v-35q30 -3 60 -3q93 0 188 30l24 -147q-112 -30 -222 -30
q-140 0 -202.5 65.5t-62.5 199.5t62.5 199.5t202 65.5t192.5 -38t53 -142q0 -88 -63.5 -126.5t-231.5 -38.5zM562 327v-41h41q36 0 52.5 7.5t16.5 34.5v41h-41q-36 0 -52.5 -7.5t-16.5 -34.5z" />
    <glyph glyph-name="Scaron" unicode="&#x160;" horiz-adv-x="577" 
d="M25 11l28 165q92 -23 165.5 -23t118.5 6v50l-90 8q-122 11 -167.5 58.5t-45.5 140.5q0 128 55.5 176t188.5 48t240 -25l-25 -160q-93 15 -149 15t-95 -5v-49l72 -7q131 -13 181 -62.5t50 -137.5q0 -63 -17 -106.5t-40.5 -66t-66.5 -34.5t-75.5 -14.5t-86.5 -2.5
q-130 0 -241 26zM312 661h-48q-7 0 -16 9l-113 145l60 49l93 -63l93 63l60 -49l-113 -145q-9 -9 -16 -9z" />
    <glyph glyph-name="scaron" unicode="&#x161;" horiz-adv-x="526" 
d="M274 515q112 0 206 -31l-23 -136q-78 22 -156 22q-24 0 -68 -4v-32q162 0 220 -48q29 -24 41 -52.5t12 -69t-9.5 -72.5t-29 -51t-40.5 -31t-55 -17q-53 -8 -123 -8q-124 0 -224 29l25 142q84 -26 182 -26q45 0 82 4v32q-160 0 -220.5 42t-60.5 139.5t64.5 132.5t176.5 35
zM289 537h-48q-7 0 -16 9l-113 145l60 49l93 -63l93 63l60 -49l-113 -145q-9 -9 -16 -9z" />
    <glyph glyph-name="Ydieresis" unicode="&#x178;" horiz-adv-x="560" 
d="M221 625l55 -220h7l56 220h221l-180 -455v-170h-200v170l-180 455h221zM107.5 693q-16.5 17 -16.5 60.5t16.5 61t63 17.5t63 -17.5t16.5 -61t-16 -60.5t-63 -17t-63.5 17zM326.5 693q-16.5 17 -16.5 60.5t16.5 61t63 17.5t63 -17.5t16.5 -61t-16 -60.5t-63 -17t-63.5 17z
" />
    <glyph glyph-name="Zcaron" unicode="&#x17d;" horiz-adv-x="589" 
d="M564 0h-539v125l256 334l-3 6h-210l-18 160h510v-125l-253 -334l3 -6h254v-160zM318 661h-48q-7 0 -16 9l-113 145l60 49l93 -63l93 63l60 -49l-113 -145q-9 -9 -16 -9z" />
    <glyph glyph-name="zcaron" unicode="&#x17e;" horiz-adv-x="530" 
d="M25 100l196 244l-3 6h-158l-15 150h454v-100l-193 -244l3 -6h196v-150h-480v100zM289 537h-48q-7 0 -16 9l-113 145l60 49l93 -63l93 63l60 -49l-113 -145q-9 -9 -16 -9z" />
    <glyph glyph-name="florin" unicode="&#x192;" horiz-adv-x="479" 
d="M329 428l-3 -59h113l-10 -107h-107l-11 -262q-8 -165 -155 -165h-145v130l52 10q23 4 35 12.5t13 27.5l10 247h-76v107h81l3 74q4 100 47 149t132 49t171 -19l-30 -145h-47q-35 0 -53.5 -9t-19.5 -40z" />
    <glyph glyph-name="circumflex" unicode="&#x2c6;" horiz-adv-x="385" 
d="M168 740h48q7 0 16 -9l113 -145l-60 -49l-93 63l-93 -63l-60 49l113 145q9 9 16 9z" />
    <glyph glyph-name="caron" unicode="&#x2c7;" horiz-adv-x="385" 
d="M216 537h-48q-7 0 -16 9l-113 145l60 49l93 -63l93 63l60 -49l-113 -145q-9 -9 -16 -9z" />
    <glyph glyph-name="breve" unicode="&#x2d8;" horiz-adv-x="385" 
d="M127 704q6 -26 24.5 -40.5t40.5 -14.5t40.5 14.5t24.5 40.5l106 -15q-16 -67 -63.5 -103t-107.5 -36t-108 36t-63 103z" />
    <glyph glyph-name="dotaccent" unicode="&#x2d9;" horiz-adv-x="265" 
d="M56.5 557q-19.5 20 -19.5 74.5t19.5 76t76 21.5t76 -21.5t19.5 -76t-19 -74.5t-76 -20t-76.5 20z" />
    <glyph glyph-name="ring" unicode="&#x2da;" horiz-adv-x="265" 
d="M44 555.5q-27 28.5 -27 87t27 87t88.5 28.5t88.5 -28.5t27 -87t-27 -87t-88.5 -28.5t-88.5 28.5zM90 664v-68h42q15 0 22 1q20 3 20 25v67h-39q-30 0 -37.5 -7t-7.5 -18z" />
    <glyph glyph-name="ogonek" unicode="&#x2db;" horiz-adv-x="500" 
d="M300 21l19 -21l-54 -26q0 -21 6 -26.5t27 -5.5h49l11 -88q-60 -19 -109.5 -19t-78 24t-28.5 60q0 66 78 102h80z" />
    <glyph glyph-name="tilde" unicode="&#x2dc;" horiz-adv-x="458" 
d="M372 716l50 -81q-119 -80 -133.5 -86t-28.5 -6t-22.5 2t-18.5 7.5t-15.5 9.5t-18 13t-17.5 13l-82 -40l-50 81q119 80 133.5 86t28.5 6t22.5 -2t18.5 -7.5t15.5 -9.5t18 -13t17.5 -13z" />
    <glyph glyph-name="hungarumlaut" unicode="&#x2dd;" horiz-adv-x="599" 
d="M88 530l-40 59l140 140q9 11 15.5 11.5t18.5 -11.5l63 -74q7 -8 7 -17t-9 -18l-41 -38q-9 -9 -33 -16zM351 530l-40 59l140 140q9 11 15.5 11.5t18.5 -11.5l63 -74q7 -8 7 -17t-9 -18l-41 -38q-9 -9 -33 -16z" />
    <glyph glyph-name="pi" unicode="&#x3c0;" horiz-adv-x="657" 
d="M55 500h422q4 17 6 36l147 -7q0 -113 -18 -145q-21 -34 -60 -34v-207q32 -6 49 -7l-9 -147q-128 0 -169 15q-51 19 -63 48q-8 18 -8 42v256h-7q-48 -2 -54 -38l-56 -312h-152l25 366l-53 12v122z" />
    <glyph glyph-name="endash" unicode="&#x2013;" horiz-adv-x="595" 
d="M25 200v108q0 27 16.5 34.5t52.5 7.5h476v-108q0 -27 -16.5 -34.5t-52.5 -7.5h-476z" />
    <glyph glyph-name="emdash" unicode="&#x2014;" horiz-adv-x="854" 
d="M25 200v108q0 27 16.5 34.5t52.5 7.5h735v-108q0 -27 -16.5 -34.5t-52.5 -7.5h-735z" />
    <glyph glyph-name="quoteleft" unicode="&#x2018;" horiz-adv-x="275" 
d="M221 472.5q13 -17.5 13 -64.5t-22 -71t-86.5 -24t-86.5 24t-22 83v12q2 37 10 55.5t14.5 30.5t8.5 16l68 136l89 -29l-33 -145q34 -6 47 -23.5z" />
    <glyph glyph-name="quoteright" unicode="&#x2019;" horiz-adv-x="275" 
d="M258 551v-12q-3 -44 -25 -87q-7 -13 -8 -15l-68 -136l-89 29l33 144q-35 6 -47.5 23.5t-12.5 65t22 71.5t86.5 24t86.5 -24t22 -83z" />
    <glyph glyph-name="quotesinglbase" unicode="&#x201a;" horiz-adv-x="275" 
d="M258 101v-12q-3 -44 -25 -87q-7 -13 -8 -15l-68 -136l-89 29l33 144q-35 6 -47.5 23.5t-12.5 65t22 71.5t86.5 24t86.5 -24t22 -83z" />
    <glyph glyph-name="quotedblleft" unicode="&#x201c;" horiz-adv-x="525" 
d="M267 420v12q2 37 10 55.5t14.5 30.5t8.5 16l68 136l89 -29l-33 -145q34 -6 47 -23.5t13 -64.5t-22 -71t-86.5 -24t-86.5 24t-22 83zM221 472.5q13 -17.5 13 -64.5t-22 -71t-86.5 -24t-86.5 24t-22 83v12q2 37 10 55.5t14.5 30.5t8.5 16l68 136l89 -29l-33 -145
q34 -6 47 -23.5z" />
    <glyph glyph-name="quotedblright" unicode="&#x201d;" horiz-adv-x="525" 
d="M53.5 497.5q-12.5 17.5 -12.5 65t22 71.5t86.5 24t86.5 -24t22 -83v-12q-3 -44 -25 -87q-7 -13 -8 -15l-68 -136l-89 29l33 144q-35 6 -47.5 23.5zM303.5 497.5q-12.5 17.5 -12.5 65t22 71.5t86.5 24t86.5 -24t22 -83v-10q-3 -39 -10 -58q-14 -33 -23 -46l-68 -136
l-89 29l33 144q-35 6 -47.5 23.5z" />
    <glyph glyph-name="quotedblbase" unicode="&#x201e;" horiz-adv-x="525" 
d="M53.5 47.5q-12.5 17.5 -12.5 65t22 71.5t86.5 24t86.5 -24t22 -83v-12q-3 -44 -25 -87q-7 -13 -8 -15l-68 -136l-89 29l33 144q-35 6 -47.5 23.5zM303.5 47.5q-12.5 17.5 -12.5 65t22 71.5t86.5 24t86.5 -24t22 -83v-10q-3 -39 -10 -58q-14 -33 -23 -46l-68 -136l-89 29
l33 144q-35 6 -47.5 23.5z" />
    <glyph glyph-name="dagger" unicode="&#x2020;" horiz-adv-x="540" 
d="M510 330l-162 20l32 -400h-220l31 400l-161 -20v190l155 -20l-25 165h220l-25 -168l155 23v-190z" />
    <glyph glyph-name="daggerdbl" unicode="&#x2021;" horiz-adv-x="540" 
d="M510 330l-159 20l-4 -43l4 -43l159 21v-190l-146 21l16 -166h-220l15 166l-145 -21v190l159 -20l4 42l-4 43l-159 -20v190l145 -21l-15 166h220l-16 -166l146 21v-190z" />
    <glyph glyph-name="bullet" unicode="&#x2022;" horiz-adv-x="342" 
d="M30 249q0 77 29 108t112.5 31t112 -31t28.5 -108t-28.5 -107t-112 -30t-112.5 30t-29 107z" />
    <glyph glyph-name="ellipsis" unicode="&#x2026;" horiz-adv-x="877" 
d="M30 99q0 59 22 83t86.5 24t86.5 -24t22 -83t-22 -82t-86.5 -23t-86.5 23t-22 82zM330 99q0 59 22 83t86.5 24t86.5 -24t22 -83t-22 -82t-86.5 -23t-86.5 23t-22 82zM630 99q0 59 22 83t86.5 24t86.5 -24t22 -83t-22 -82t-86.5 -23t-86.5 23t-22 82z" />
    <glyph glyph-name="perthousand" unicode="&#x2030;" horiz-adv-x="1145" 
d="M472 170q0 94 43.5 139.5t141.5 45.5t141 -46q45 46 142.5 46t141 -45.5t43.5 -139.5t-43.5 -139.5t-141 -45.5t-142.5 46q-43 -46 -141 -46t-141.5 45.5t-43.5 139.5zM20 455q0 94 43.5 139.5t141.5 45.5t141.5 -45.5t43.5 -139.5t-43.5 -139.5t-141.5 -45.5
t-141.5 45.5t-43.5 139.5zM659 625l-345 -600q-10 -17 -17.5 -21t-31.5 -4h-65l345 600q10 17 17.5 21t31.5 4h65zM630 209v-107h22q21 0 26.5 4.5t5.5 24.5v107h-22q-21 0 -26.5 -4.5t-5.5 -24.5zM913 209v-107h22q21 0 26.5 4.5t5.5 24.5v107h-22q-21 0 -26.5 -4.5
t-5.5 -24.5zM178 494v-107h22q21 0 26.5 4.5t5.5 24.5v107h-22q-21 0 -26.5 -4.5t-5.5 -24.5z" />
    <glyph glyph-name="guilsinglleft" unicode="&#x2039;" horiz-adv-x="325" 
d="M25 300l194 175l81 -51l-100 -174l100 -174l-81 -51l-194 175v100z" />
    <glyph glyph-name="guilsinglright" unicode="&#x203a;" horiz-adv-x="325" 
d="M106 475l194 -175v-100l-194 -175l-81 51l100 174l-100 174z" />
    <glyph glyph-name="fraction" unicode="&#x2044;" horiz-adv-x="503" 
d="M433 665l-269 -680q-5 -10 -9 -14q-11 -11 -34 -11h-51l269 680q5 10 9 14q11 11 34 11h51z" />
    <glyph glyph-name="Euro" unicode="&#x20ac;" horiz-adv-x="563" 
d="M439 206h-160l-2 -53q39 -8 79 -8q80 0 147 24l9 -158q-64 -26 -167 -26q-144 0 -206.5 50t-74.5 171h-49l7 82h424zM453 338h-424l7 82h42q19 119 86.5 169.5t210.5 50.5q72 0 148 -19l-28 -146h-135q-20 0 -32.5 -2.5t-23 -14t-11.5 -32.5v-6h167z" />
    <glyph glyph-name="trademark" unicode="&#x2122;" horiz-adv-x="807" 
d="M461 343h-138l25 389h175l31 -148h7l31 148h175l25 -389h-138l-8 148h-6l-35 -148h-95l-36 148h-6zM326 617h-86v-274h-140v274h-85v115h311v-115z" />
    <glyph glyph-name="Omega" unicode="&#x2126;" horiz-adv-x="703" 
d="M303 250l-15 -250h-273v143l150 9l6 14q-79 28 -110.5 79t-31.5 120t14 113.5t48 83.5q69 78 262 78q220 0 287 -109q37 -61 37 -148.5t-32.5 -139t-112.5 -79.5l6 -12l150 -9v-143h-273l-15 250q25 0 38 2t24 12t12 29v187h-171q-39 0 -56.5 -9t-17.5 -41v-130
q0 -32 17.5 -41t56.5 -9z" />
    <glyph glyph-name="partialdiff" unicode="&#x2202;" horiz-adv-x="590" 
d="M333 455l34 -1l3 27l-159 41v103h153q84 -36 136.5 -119t52.5 -187q0 -143 -67 -235q-34 -46 -92.5 -72.5t-135.5 -26.5q-114 0 -167 48.5t-53 145.5q0 276 295 276zM252 279l-20 -148h29q22 0 34.5 2t24 12t13.5 28l20 148h-30q-34 0 -51 -7.5t-20 -34.5z" />
    <glyph glyph-name="Delta" unicode="&#x2206;" horiz-adv-x="703" 
d="M250 625h203l220 -573l-19 -52h-605l-19 52zM219 150h165q29 0 29 23q0 9 -2 14l-84 258h-10z" />
    <glyph glyph-name="product" unicode="&#x220f;" horiz-adv-x="800" 
d="M53 625h546q4 17 6 36l147 -7q0 -113 -18 -144q-21 -35 -60 -35v-625h-200v625h-64q-30 -1 -44.5 -11t-16.5 -39l-49 -575h-177l17 634l-87 19v122z" />
    <glyph glyph-name="summation" unicode="&#x2211;" horiz-adv-x="654" 
d="M598 0l-22 -150h-514l-19 52l211 309l-182 362l19 52h507l-18 -125l-184 -25q-44 -6 -44 -27q0 -10 6 -23l95 -178l-167 -233l8 -14h304z" />
    <glyph glyph-name="minus" unicode="&#x2212;" 
d="M72 240v144h455v-144h-455z" />
    <glyph glyph-name="radical" unicode="&#x221a;" horiz-adv-x="544" 
d="M514 552l-139 -552h-213l-162 500h207l91 -320h10l102 470h197l-13 -98h-80z" />
    <glyph glyph-name="infinity" unicode="&#x221e;" horiz-adv-x="905" 
d="M603 -15q-77 0 -117 19q-16 8 -16 13l22 62l-9 5q-38 -53 -80.5 -76t-100.5 -23q-133 0 -192.5 65.5t-59.5 199.5t58 199.5t187 65.5q80 0 123 -19q16 -8 16 -13l-23 -62l9 -5q40 53 85 76t105 23q129 0 187 -65.5t58 -199.5t-59.5 -199.5t-192.5 -65.5zM662 193v156
q-35 0 -55.5 -8.5t-30.5 -33.5l-56 -156h73q36 0 52.5 7.5t16.5 34.5zM243 307v-156q35 0 55.5 8.5t30.5 33.5l56 156h-73q-36 0 -52.5 -7.5t-16.5 -34.5z" />
    <glyph glyph-name="integral" unicode="&#x222b;" horiz-adv-x="373" 
d="M281 429l-26 -470q-2 -37 -31.5 -62t-75.5 -36q-81 -19 -167 -19l-6 117q89 19 102 47q6 13 7 39l25 470q2 37 30 62t73 36q79 19 167 19l6 -117q-68 -16 -85 -32t-19 -54z" />
    <glyph glyph-name="approxequal" unicode="&#x2248;" 
d="M72 121v144q43 -38 91.5 -38t136 37.5t135.5 37.5t92 -37v-144q-44 37 -92 37t-135.5 -37.5t-136 -37.5t-91.5 38zM72 359v144q43 -38 91.5 -38t136 37.5t135.5 37.5t92 -37v-144q-44 37 -92 37t-135.5 -37.5t-136 -37.5t-91.5 38z" />
    <glyph glyph-name="notequal" unicode="&#x2260;" 
d="M72 121v144h455v-144h-455zM72 359v144h455v-144h-455zM552 665l-389 -680q-5 -10 -9 -14q-11 -11 -34 -11h-71l389 680q5 10 9 14q11 11 34 11h71z" />
    <glyph glyph-name="lessequal" unicode="&#x2264;" 
d="M432 587l67 -134l-225 -89v-5l225 -88l-67 -134l-325 145v160zM107 -15v120h386v-120h-386z" />
    <glyph glyph-name="greaterequal" unicode="&#x2265;" 
d="M101 453l67 134l325 -145v-160l-325 -145l-67 134l225 88v5zM493 105v-120h-386v120h386z" />
    <glyph glyph-name="lozenge" unicode="&#x25ca;" horiz-adv-x="700" 
d="M452 -150h-203l-198 387l198 388h203l197 -388zM242 238l101 -198h15l99 196l-99 195h-15z" />
    <glyph glyph-name="CR" horiz-adv-x="150" 
 />
    </font>
</defs>
</svg>
